<svg xmlns="http://www.w3.org/2000/svg" 
version="1.1" 
xmlns:xlink="http://www.w3.org/1999/xlink" 
xmlns:svgjs="http://svgjs.dev/svgjs" 
width="1000" 
height="1125" 
viewBox="0 0 1000 1125">
<g transform="matrix(1,0,0,1,1.7053025658242404e-13,0)">
<svg viewBox="0 0 320 360" 
data-background-color="#ea3c12" 
preserveAspectRatio="xMidYMid meet" 
height="1125" 
width="1000" 
xmlns="http://www.w3.org/2000/svg" 
xmlns:xlink="http://www.w3.org/1999/xlink">
<g id="tight-bounds" 
transform="matrix(1,0,0,1,0,0)">
<svg viewBox="0 0 320 360" 
height="360" 
width="320">
<g>
<svg>
</svg>
</g>
<g>
<svg viewBox="0 0 320 360" height="360" width="320">
<g>
<path xmlns="http://www.w3.org/2000/svg" d="M20.961 227.22l3.726 4.658-1.863-6.056c-0.466-2.795-3.726 0.466-1.863 1.398M25.153 224.425c1.397 2.329 2.795 4.658 2.795 6.987 0 3.261 2.795 4.658 5.123 5.589-3.261-3.726-5.124-13.974-7.918-12.576M204.017 26.929c7.918 0 15.371-0.932 23.756 0.931 20.495 5.124 37.729 15.371 49.374 29.811l32.606 52.169c1.397 13.042 4.192 27.482 3.726 43.319 3.261 0 2.795-4.658 6.521-5.59-3.726 9.316-5.59 20.961-6.521 34.469-2.329-7.453 0-18.632 0.466-24.687-3.261 5.124-5.124 1.397-5.124-0.932 0.466-3.726-1.397-3.261-2.795-4.658-5.124-4.658-8.384-9.782-12.11-17.7 2.329-6.055 2.795-14.905-4.658-19.563-2.329-1.397-5.124-3.726-6.521-7.453-1.863-5.124-5.124-11.179-4.193-19.097 0.466-2.329-6.987 5.124-11.179 1.863-18.166-12.576-36.332-27.016-58.224-39.127-11.645 0-20.029-4.192-24.221-9.316-3.726-4.658-0.932-10.713 4.658-11.179 3.261 0 6.987-0.932 9.782 0.932 0.466-1.863 2.329-4.192 4.657-4.192M157.904 16.215l0.932 0.466c4.658 0.932 6.987 7.453 12.11 5.124 0 3.261 0.466 6.521-0.466 8.85-1.397 3.726-5.59 3.726-8.85 3.726-31.208-1.863-49.374 11.179-68.471 22.358-5.124 3.261-10.713 5.59-14.906 9.782-20.029 18.632-41.921 35.866-47.045 70.335l-4.192 38.195c-0.466 4.192-5.124 8.384-4.192 13.508l3.26 22.824c-3.261-3.261-5.124 0.932-4.192 2.795 0.466 1.397 2.329 6.055 5.124 1.863 3.726 6.987 7.453 20.495 12.576 26.55 15.837 18.632 36.332 35.4 53.101 52.169 4.192-0.932 7.453-0.932 8.384-3.727 1.397 2.795-1.397 5.59-3.726 6.056 7.453 4.658 15.837 8.85 27.016 9.781 14.44 0.932 27.948 3.261 40.524 6.522 6.521-1.863 13.042-2.795 20.029-3.261 2.329 0 3.726-3.726 6.521-4.658l0.466-4.658c2.795 4.192 2.329-1.397 0.466-4.192 3.261 2.795 4.192 5.124 5.589 6.987 0-1.397 3.726-6.521 3.727-0.466l0.931-6.055c1.397-0.932 1.863 5.124 3.261 0.931 1.397-4.192 4.192-0.932 6.987-2.329-0.932 1.863-0.466 5.59 2.794 3.261l3.727-3.261c2.329 5.59 6.055 3.261 7.918 2.329 20.495-13.042 40.99-28.413 60.553-43.784l-0.466 6.055 2.329-7.453c2.329 2.329 4.192 0.466 5.124-0.931 2.795-4.658 6.521-9.316 12.577-13.508-7.453 20.029-16.303 35.866-27.482 48.908l-4.658 5.59c0 3.261-0.932 7.453-4.658 7.918-1.863 0.466-5.59-0.932-8.384 1.863-1.397 1.863 3.261 5.59-0.466 2.795-3.261-2.329-6.521 0-10.248 0.932-2.795 0.932 1.863 3.726 2.795 5.589 0.932 1.863 1.863 3.726 1.398 6.056l-5.124-5.59c-6.055 3.261-9.782 9.316-14.906 13.974-2.329 1.863-1.397 5.124-1.397 7.918-3.261 0-6.987-0.932-8.85 0.932-1.397 1.863-0.932 4.658-0.932 7.453-4.658-0.466-5.124-7.453-9.315-6.056-4.192 0.932-8.85 1.397-12.577 3.727 2.795 5.59-4.658 2.329-3.726 3.26-6.987-4.192-13.042-7.453-20.495-4.658-15.837-5.124-35.4-2.795-49.84-0.931 0-2.329 0.466-4.658-0.466-5.124-0.932 2.329-3.726 1.397-3.26 1.397-8.85-6.055-17.7-9.782-27.016-14.905-8.384 0.932-16.303-3.261-18.632-5.59-6.521-6.055-13.974-2.795-20.029-4.192-13.042-3.261-17.7-16.769-19.098-26.084-0.932-4.658-4.658-6.521-6.055-6.056-6.055-19.563-15.371-37.263-22.824-55.429-1.863-4.658-1.397-9.316-1.397-14.44 2.329 0.932 4.658 0.466 4.192-2.794-2.329-15.371-7.918-27.016-13.974-38.195 3.261-15.837 3.726-34.469 11.179-48.443 6.521-12.576 18.632-19.098 27.016-29.811 2.795-3.726 2.795-8.85 5.59-12.11 9.316-9.316 18.632-19.098 28.879-27.482 4.658-3.726 10.247 0 17.234-1.397 2.329-8.384 11.645-15.837 20.495-13.508 3.726 0.932 11.179-8.85 13.508-9.782 3.726-1.397 1.863 3.726 1.863 6.987 8.85-6.987 20.961-10.713 32.14-14.906" fill="#ffbe79" fill-rule="nonzero" stroke="none" stroke-width="1" stroke-linecap="butt" stroke-linejoin="miter" stroke-miterlimit="10" stroke-dasharray="" stroke-dashoffset="0" font-family="none" font-weight="none" font-size="none" text-anchor="none" style="mix-blend-mode: normal" data-fill-palette-color="tertiary"></path></g><g transform="matrix(1,0,0,1,64,119.44578132562563)"><svg viewBox="0 0 192 121.10843734874875" height="121.10843734874875" width="192"><g><svg viewBox="0 0 192 121.10843734874875" height="121.10843734874875" width="192"><g><svg viewBox="0 0 192 121.10843734874875" height="121.10843734874875" width="192"><g><svg viewBox="0 0 192 121.10843734874875" height="121.10843734874875" width="192"><g id="textblocktransform"><svg viewBox="0 0 192 121.10843734874875" height="121.10843734874875" width="192" id="textblock"><g><svg viewBox="0 0 192 121.10843734874875" height="121.10843734874875" width="192"><g transform="matrix(1,0,0,1,0,0)"><svg width="192" viewBox="-0.35567227005958557 -40.150001525878906 77.20567321777344 48.70000076293945" height="121.10843734874875" data-palette-color="#ffbe79"><path d="M66.33-26.05Q68.75-31.45 70.6-34.23 72.45-37 74.08-37.58 75.7-38.15 76.28-38.15 76.85-38.15 76.85-38L76.85-38Q76.85-37.85 76.2-37.52 75.55-37.2 73.98-34.9 72.4-32.6 70-27.85 67.6-23.1 65.8-17.8L65.8-17.8Q68.85-17.8 69.67-18.1 70.5-18.4 70.67-18.2 70.85-18 70.2-17.55L70.2-17.55Q68.55-16.4 65.35-16.2L65.35-16.2Q65.3-16.1 64.55-13.8L64.55-13.8Q62.05-6.05 62.05-2.95L62.05-2.95Q62.05-1.2 62.68-0.5 63.3 0.2 64 0.2 64.7 0.2 65.55-0.4L65.55-0.4Q68.4-2.5 71.8-9.45L71.8-9.45Q72.2-10.3 72.58-10.15 72.95-10 72.55-9.1L72.55-9.1Q70.7-5.15 69.48-3.3 68.25-1.45 66.7 0.1L66.7 0.1Q64.65 2.05 62.6 2.05L62.6 2.05Q60.3 2.05 59.4 0.15L59.4 0.15Q58.95-0.75 58.95-1.5 58.95-2.25 58.98-3.08 59-3.9 59.15-5.23 59.3-6.55 59.88-8.53 60.45-10.5 60.78-11.53 61.1-12.55 61.75-14.3 62.4-16.05 62.45-16.2L62.45-16.2Q60.3-16.2 45.5-16.85L45.5-16.85Q42.45-7.75 35.9-0.55L35.9-0.55Q32.7 3 28.45 5.4L28.45 5.4Q22.75 8.55 16.45 8.55L16.45 8.55Q13.8 8.55 10.55 7.78 7.3 7 4.4 4.83 1.5 2.65 0.28-1.05-0.95-4.75 0.2-9.25L0.2-9.25Q0.8-11.55 2.88-13.55 4.95-15.55 6.3-15.6L6.3-15.6Q6.8-15.6 6.9-15.48 7-15.35 6.83-15.18 6.65-15 6.4-14.9L6.4-14.9Q4.9-14.25 3.3-12.05L3.3-12.05Q1.2-9.15 1.2-5.3L1.2-5.3Q1.2 0.7 7 3.65L7 3.65Q10.5 5.4 15.2 5.4L15.2 5.4Q17.25 5.4 19.05 5L19.05 5Q36 1.2 42.9-16.95L42.9-16.95Q41.6-16.95 40.38-16.38 39.15-15.8 38.78-15.8 38.4-15.8 38.35-16.1L38.35-16.1Q38.35-16.95 39.55-17.73 40.75-18.5 41.65-18.6L41.65-18.6 43.6-18.6Q46.8-26.6 50.9-34.8L50.9-34.8Q49.6-34.65 47.2-34.45 44.8-34.25 43.3-34.1 41.8-33.95 39.6-33.6 37.4-33.25 35.95-32.77 34.5-32.3 32.73-31.45 30.95-30.6 29.75-29.5L29.75-29.5Q26.9-26.8 25.7-22.9L25.7-22.9Q25.2-21.3 25.2-19.5 25.2-17.7 26.5-16 27.8-14.3 29.95-14.3L29.95-14.3Q34.2-14.3 36-19.2L36-19.2Q36.85-21.5 36.85-22.43 36.85-23.35 36.52-23.83 36.2-24.3 36.7-24.4L36.7-24.4Q37.05-24.45 37.3-24L37.3-24Q37.9-22.7 37.9-21.2 37.9-19.7 36.9-17.95L36.9-17.95Q35.2-14.85 32.3-13.8L32.3-13.8Q30.9-13.3 29.5-13.3 28.1-13.3 26.7-13.9L26.7-13.9Q24.05-15.05 22.8-17.8L22.8-17.8Q22-19.45 22-20.95 22-22.45 22.48-24.38 22.95-26.3 24.35-28.3 25.75-30.3 27.85-31.53 29.95-32.75 32.05-33.55 34.15-34.35 37.02-34.75 39.9-35.15 42.03-35.35 44.15-35.55 47.15-35.7 50.15-35.85 51.6-36L51.6-36Q52.15-36.95 53.28-38.33 54.4-39.7 55.2-39.93 56-40.15 56.45-40.15L56.45-40.15Q58.3-40.15 58.3-38.58 58.3-37 56.25-35.95 54.2-34.9 52.4-34.9L52.4-34.9Q51.05-32.3 48.58-25.63 46.1-18.95 45.95-18.6L45.95-18.6Q49.7-18.6 55.63-18.18 61.55-17.75 62.9-17.75L62.9-17.75Q63.9-20.65 66.33-26.05ZM55.8-38.6L55.8-38.6Q55.2-38.6 53.3-36.15L53.3-36.15Q56.55-36.65 56.5-37.9L56.5-37.9Q56.45-38.45 55.95-38.55L55.95-38.55Q55.9-38.6 55.8-38.6Z" opacity="1" transform="matrix(1,0,0,1,0,0)" fill="#ffbe79" class="wordmark-text-0" data-fill-palette-color="primary" id="text-0"></path></svg></g></svg></g></svg></g></svg></g><g></g></svg></g></svg></g></svg></g></svg></g><defs></defs></svg><rect width="320" height="360" fill="none" stroke="none" visibility="hidden"></rect></g></svg></g></svg>